<?xml version="1.0" encoding="iso-8859-1"?>
<!-- Generator: Adobe Illustrator 16.0.0, SVG Export Plug-In . SVG Version: 6.00 Build 0)  -->
<!DOCTYPE svg PUBLIC "-//W3C//DTD SVG 1.1//EN" "http://www.w3.org/Graphics/SVG/1.1/DTD/svg11.dtd">
<svg version="1.1" id="Capa_1" xmlns="http://www.w3.org/2000/svg" xmlns:xlink="http://www.w3.org/1999/xlink" x="0px" y="0px"
	 width="265.063px" height="265.063px" viewBox="0 0 265.063 265.063" style="enable-background:new 0 0 265.063 265.063;"
	 xml:space="preserve">
<g>
	<path style="fill:#030303;" d="M127.654,11.71c3.233,0,5.855-2.616,5.855-5.855c0-3.236-2.622-5.855-5.855-5.855H13.534
		c-3.23,0-5.855,2.619-5.855,5.855v221.196c0,3.236,2.625,5.854,5.855,5.854h213.293c3.226,0,5.855-2.618,5.855-5.854V5.855
		c0-3.236-2.63-5.855-5.855-5.855h-12.316c-3.23,0-5.855,2.619-5.855,5.855c0,3.239,2.625,5.855,5.855,5.855h6.462v209.485H19.39
		V11.71H127.654z"/>
	<path style="fill:#030303;" d="M257.385,259.209V48.952c0-3.239-2.625-5.855-5.855-5.855h-7.136c-3.226,0-5.855,2.616-5.855,5.855
		c0,3.236,2.63,5.855,5.855,5.855h1.28v198.547H36.395l-12.866-12.871c-2.281-2.282-5.995-2.293-8.277,0
		c-2.29,2.281-2.29,5.998-0.005,8.279l14.578,14.587c1.101,1.104,2.587,1.715,4.14,1.715h217.553
		C254.76,265.063,257.385,262.45,257.385,259.209z"/>
	<path style="fill:#030303;" d="M150.092,5.855c-3.236,0-5.855,2.619-5.855,5.855v100.88c0,2.239,1.27,4.274,3.282,5.266
		c0.817,0.397,1.692,0.589,2.573,0.589c1.275,0,2.539-0.414,3.591-1.229l19.602-15.192l20.728,15.281
		c1.778,1.324,4.146,1.516,6.112,0.515c1.974-0.995,3.214-3.022,3.214-5.229V11.71c0-3.236-2.619-5.855-5.855-5.855
		c-3.23,0-5.855,2.619-5.855,5.855v89.287l-14.964-11.03c-2.099-1.558-4.991-1.523-7.062,0.089l-13.654,10.584V11.71
		C155.947,8.479,153.322,5.855,150.092,5.855z"/>
</g>
<g>
</g>
<g>
</g>
<g>
</g>
<g>
</g>
<g>
</g>
<g>
</g>
<g>
</g>
<g>
</g>
<g>
</g>
<g>
</g>
<g>
</g>
<g>
</g>
<g>
</g>
<g>
</g>
<g>
</g>
</svg>
